<?xml version="1.0" encoding="utf-8"?>
<!-- Generator: Adobe Illustrator 24.2.0, SVG Export Plug-In . SVG Version: 6.00 Build 0)  -->
<svg version="1.1" id="Layer_1" xmlns="http://www.w3.org/2000/svg" xmlns:xlink="http://www.w3.org/1999/xlink" x="0px" y="0px"
	 viewBox="0 0 1253.5 1298.2" style="enable-background:new 0 0 1253.5 1298.2;" xml:space="preserve">
<g>
	<g>
		<polygon style="fill:#D6E3EF;" points="1071.8,407.1 181.7,407.1 126.8,240.3 1126.8,240.3 		"/>
		<text transform="matrix(1 0 0 1 441.1917 342.6198)" style="fill:#001C39; font-family:'Lato-Regular'; font-size:76.878px;">Awareness</text>
	</g>
	<g>
		<polygon style="fill:#91B2D5;" points="1010,594.6 243.9,594.6 188.6,427.8 1065,427.8 		"/>
		<text transform="matrix(1 0 0 1 469.9827 530.1199)" style="fill:#001C39; font-family:'Lato-Regular'; font-size:76.878px;">Interesse</text>
	</g>
	<g>
		<polygon style="fill:#6996C5;" points="948.2,782.1 305.3,782.1 250.4,615.3 1003.2,615.3 		"/>
		<text transform="matrix(1 0 0 1 419.4739 717.6208)" style="fill:#001C39; font-family:'Lato-Regular'; font-size:76.878px;">Registration</text>
	</g>
	<g>
		<polygon style="fill:#2969AD;" points="886.5,969.4 367.7,969.4 312.1,802.6 941.5,802.6 		"/>
		<text transform="matrix(1 0 0 1 410.9387 904.9695)" style="fill:#8FAFCC; font-family:'Lato-Regular'; font-size:76.878px;">Consumeren</text>
	</g>
	<g>
		<polygon style="fill:#004D9D;" points="824.7,1156.9 428.9,1156.9 373.9,990.3 879.6,990.3 		"/>
		<text transform="matrix(1 0 0 1 417.9749 1092.6208)" style="fill:#8FAFCC; font-family:'Lato-Regular'; font-size:76.878px;">Participeren</text>
	</g>
</g>
<g>
	<path style="fill:#001C39;" d="M709.7,1185.5l2.1,1.9l1,1l0.3,0.2l1.4,1.2c2.1,1.9,4.2,3.8,6.3,5.6c17,14.7,35.3,27.5,54.7,37.5
		c19.5,10,40.1,17.2,61.2,21c10.6,1.9,21.2,2.9,31.9,3c10.7,0.1,21.4-0.6,32-2.2c10.6-1.6,21.1-4,31.4-7.3
		c10.3-3.3,20.4-7.4,30.2-12.1c9.8-4.8,19.4-10.3,28.6-16.4c9.2-6.1,18.2-12.8,26.7-20c8.6-7.2,16.8-14.9,24.8-23
		c8-8.1,15.5-16.7,22.8-25.5c29.1-35.5,53.1-76,72.7-118.9c9.9-21.4,18.6-43.5,26.4-66c3.8-11.3,7.6-22.6,10.9-34.1
		c1.8-5.7,3.3-11.5,4.9-17.2c0.8-2.9,1.5-5.8,2.3-8.7c0.8-2.9,1.6-5.8,2.3-8.7c11.7-46.4,19.8-94,24.6-142
		c4.7-48,6.3-96.4,4.5-144.6c-1.7-48.2-6.7-96.3-15-143.7c-4.2-23.7-9.3-47.1-15.3-70.3c-6-23.2-12.9-46.1-20.8-68.5
		c-15.8-44.9-35.5-88.1-60-127.7c-6.1-9.9-12.5-19.6-19.3-29c-6.7-9.4-13.8-18.5-21.1-27.3c-7.4-8.7-15.1-17.2-23.1-25.2
		c-2-2-4-4-6.1-5.9l-6.2-5.8l-6.3-5.6c-2.1-1.9-4.3-3.6-6.5-5.4c-17.4-14.1-36-26.3-55.8-35.4c-19.8-9.2-40.6-15.4-61.9-18.2
		c-10.6-1.4-21.3-1.9-32-1.5l-4,0.1c-1.3,0.1-2.7,0.2-4,0.3c-2.7,0.2-5.3,0.4-8,0.7c-5.3,0.8-10.6,1.4-15.9,2.6
		c-5.3,0.9-10.5,2.4-15.7,3.7c-2.6,0.8-5.2,1.6-7.7,2.4c-1.3,0.4-2.6,0.8-3.9,1.2l-3.8,1.4l-3.8,1.4c-1.3,0.5-2.5,0.9-3.8,1.5
		l-7.5,3.2c-1.3,0.5-2.5,1.1-3.7,1.7l-3.7,1.8l-3.7,1.8c-1.2,0.6-2.4,1.3-3.6,2l-7.2,4l-7.1,4.3c-1.2,0.7-2.4,1.4-3.5,2.2l-3.4,2.3
		l-4.4,2.9c-0.8,0.5-1.5,1-2.3,1.6l-4.5,3.3l-4.5,3.3l-4.4,3.5c6.6,2.2,12.4,7.8,15.7,12.7c-3.2-0.8-6.5-1.3-9.9-1.6
		c-1.7-0.1-3.5-0.2-5.2-0.2c-1.8,0-3.5,0.1-5.3,0.3c-3.5,0.4-7.2,1-10.9,2c-3.6,1.1-7.3,2.5-11,4.2c8.5-14.8,13-30.7,16.7-46.2
		c2.8,5.9,5.3,13.6,4.9,21.4l4.5-3.6l4.6-3.4l4.6-3.4c0.8-0.6,1.6-1.1,2.4-1.6l3.6-2.4l3.6-2.4l1.8-1.2l1.8-1.1l7.3-4.4
		c2.4-1.5,5-2.8,7.4-4.1l3.7-2c1.3-0.7,2.5-1.3,3.8-1.9c2.5-1.2,5.1-2.5,7.6-3.7c5.2-2.2,10.3-4.6,15.6-6.4
		c5.2-2.1,10.6-3.6,15.9-5.3c2.7-0.8,5.4-1.4,8.1-2.1c1.4-0.3,2.7-0.7,4.1-1l4.1-0.8l4.1-0.8c1.4-0.3,2.7-0.6,4.1-0.7l8.3-1.2
		c1.4-0.2,2.8-0.3,4.1-0.4l4.2-0.4l4.2-0.4c1.4-0.1,2.8-0.1,4.2-0.2c11.1-0.6,22.2,0,33.3,1.4c22.1,2.8,43.8,9.2,64.3,18.6
		c20.5,9.4,39.8,21.9,57.7,36.3c9,7.2,17.5,15,25.8,23.2c8.2,8.2,16.1,16.8,23.7,25.7c7.5,9,14.7,18.3,21.6,27.8
		c6.9,9.6,13.4,19.5,19.7,29.5c25,40.4,45,84.3,61,129.8c8.1,22.7,15,45.9,21.1,69.4c6.1,23.5,11.2,47.2,15.5,71.2
		c8.4,47.9,13.5,96.6,15.2,145.3c1.7,48.8,0.2,97.7-4.6,146.2c-4.9,48.5-13.1,96.6-25,143.7c-12,47-27.5,92.9-47.6,136.5
		c-20,43.5-44.5,84.8-74.3,120.9c-7.5,9-15.3,17.7-23.4,26c-8.2,8.3-16.7,16.1-25.5,23.5c-17.7,14.8-36.9,27.4-57.2,37.2
		c-20.3,9.8-41.9,16.7-64,19.7c-22,3.1-44.5,2.7-66.4-1.4c-21.9-4.1-43.3-11.7-63.3-22.2c-20.1-10.5-38.9-23.8-56.2-39l-6.3-5.7
		l-0.5-0.5l-1.1-1"/>
</g>
</svg>
